<mxfile host="app.diagrams.net" modified="2021-09-01T03:21:37.212Z" agent="5.0 (Macintosh; Intel Mac OS X 10_15_7) AppleWebKit/537.36 (KHTML, like Gecko) Chrome/92.0.4515.131 Safari/537.36" etag="OJ6VBw5dM0iMfUuRdBTu" version="15.0.4" type="github">
  <diagram id="7eTMBlnfy5fjPss_4Uad" name="Page-1">
    <mxGraphModel dx="1186" dy="1773" grid="1" gridSize="10" guides="1" tooltips="1" connect="1" arrows="1" fold="1" page="1" pageScale="1" pageWidth="827" pageHeight="1169" math="0" shadow="0">
      <root>
        <mxCell id="0" />
        <mxCell id="1" parent="0" />
        <mxCell id="yCw_BaQZoCX1zB6WZnC3-1" value="controller" style="rounded=1;whiteSpace=wrap;html=1;shadow=0;labelBackgroundColor=none;strokeWidth=1;fontFamily=Verdana;fontSize=8;align=center;" vertex="1" parent="1">
          <mxGeometry x="180" y="-620" width="100" height="60" as="geometry" />
        </mxCell>
        <mxCell id="yCw_BaQZoCX1zB6WZnC3-2" value="ECI" style="rounded=1;whiteSpace=wrap;html=1;shadow=0;labelBackgroundColor=none;strokeWidth=1;fontFamily=Verdana;fontSize=8;align=center;" vertex="1" parent="1">
          <mxGeometry x="430" y="-820" width="100" height="60" as="geometry" />
        </mxCell>
        <mxCell id="yCw_BaQZoCX1zB6WZnC3-3" value="ECI" style="rounded=1;whiteSpace=wrap;html=1;shadow=0;labelBackgroundColor=none;strokeWidth=1;fontFamily=Verdana;fontSize=8;align=center;" vertex="1" parent="1">
          <mxGeometry x="430" y="-720" width="100" height="60" as="geometry" />
        </mxCell>
        <mxCell id="yCw_BaQZoCX1zB6WZnC3-4" value="ECI" style="rounded=1;whiteSpace=wrap;html=1;shadow=0;labelBackgroundColor=none;strokeWidth=1;fontFamily=Verdana;fontSize=8;align=center;" vertex="1" parent="1">
          <mxGeometry x="430" y="-425" width="100" height="60" as="geometry" />
        </mxCell>
        <mxCell id="yCw_BaQZoCX1zB6WZnC3-5" value="ECI" style="rounded=1;whiteSpace=wrap;html=1;shadow=0;labelBackgroundColor=none;strokeWidth=1;fontFamily=Verdana;fontSize=8;align=center;" vertex="1" parent="1">
          <mxGeometry x="430" y="-620" width="100" height="60" as="geometry" />
        </mxCell>
        <mxCell id="yCw_BaQZoCX1zB6WZnC3-6" value="ECI" style="rounded=1;whiteSpace=wrap;html=1;shadow=0;labelBackgroundColor=none;strokeWidth=1;fontFamily=Verdana;fontSize=8;align=center;" vertex="1" parent="1">
          <mxGeometry x="430" y="-520" width="100" height="60" as="geometry" />
        </mxCell>
        <mxCell id="yCw_BaQZoCX1zB6WZnC3-7" value="healthCheck" style="endArrow=classic;startArrow=classic;html=1;exitX=1;exitY=0.5;exitDx=0;exitDy=0;entryX=0;entryY=0.5;entryDx=0;entryDy=0;" edge="1" parent="1" source="yCw_BaQZoCX1zB6WZnC3-1" target="yCw_BaQZoCX1zB6WZnC3-2">
          <mxGeometry width="50" height="50" relative="1" as="geometry">
            <mxPoint x="520" y="-630" as="sourcePoint" />
            <mxPoint x="570" y="-680" as="targetPoint" />
          </mxGeometry>
        </mxCell>
        <mxCell id="yCw_BaQZoCX1zB6WZnC3-8" value="healthCheck" style="endArrow=classic;startArrow=classic;html=1;entryX=0;entryY=0.5;entryDx=0;entryDy=0;" edge="1" parent="1" target="yCw_BaQZoCX1zB6WZnC3-3">
          <mxGeometry width="50" height="50" relative="1" as="geometry">
            <mxPoint x="280" y="-590" as="sourcePoint" />
            <mxPoint x="440" y="-780.0000000000001" as="targetPoint" />
          </mxGeometry>
        </mxCell>
        <mxCell id="yCw_BaQZoCX1zB6WZnC3-9" value="healthCheck" style="endArrow=classic;startArrow=classic;html=1;entryX=0;entryY=0.5;entryDx=0;entryDy=0;" edge="1" parent="1" target="yCw_BaQZoCX1zB6WZnC3-5">
          <mxGeometry width="50" height="50" relative="1" as="geometry">
            <mxPoint x="280" y="-590" as="sourcePoint" />
            <mxPoint x="450" y="-770.0000000000001" as="targetPoint" />
          </mxGeometry>
        </mxCell>
        <mxCell id="yCw_BaQZoCX1zB6WZnC3-10" value="healthCheck" style="endArrow=classic;startArrow=classic;html=1;entryX=0;entryY=0.5;entryDx=0;entryDy=0;exitX=1;exitY=0.5;exitDx=0;exitDy=0;" edge="1" parent="1" source="yCw_BaQZoCX1zB6WZnC3-1" target="yCw_BaQZoCX1zB6WZnC3-6">
          <mxGeometry width="50" height="50" relative="1" as="geometry">
            <mxPoint x="290" y="-590" as="sourcePoint" />
            <mxPoint x="460" y="-760.0000000000001" as="targetPoint" />
          </mxGeometry>
        </mxCell>
        <mxCell id="yCw_BaQZoCX1zB6WZnC3-11" value="healthCheck" style="endArrow=classic;startArrow=classic;html=1;entryX=0;entryY=0.5;entryDx=0;entryDy=0;exitX=1;exitY=0.5;exitDx=0;exitDy=0;" edge="1" parent="1" source="yCw_BaQZoCX1zB6WZnC3-1" target="yCw_BaQZoCX1zB6WZnC3-4">
          <mxGeometry width="50" height="50" relative="1" as="geometry">
            <mxPoint x="290" y="-580" as="sourcePoint" />
            <mxPoint x="440" y="-480" as="targetPoint" />
          </mxGeometry>
        </mxCell>
      </root>
    </mxGraphModel>
  </diagram>
</mxfile>
